<svg height="214.69455" viewBox="0 0 241.05 111.19" width="465.778008" xmlns="http://www.w3.org/2000/svg"><g transform="translate(-178.64 -338.24)"><path d="m186.2 391.1a37.75 37.75 0 0 0 8.8 10.9 41 41 0 0 0 13.22 7.66 40.89 40.89 0 0 0 13.17-7.66 37.69 37.69 0 0 0 8.76-10.89zm22 11.62a4.36 4.36 0 1 1 4.36-4.35 4.36 4.36 0 0 1 -4.35 4.35zm2.24-48.34v-3.38a2.29 2.29 0 1 0 -4.57 0v3.38h-24.4v14.62h53.39v-14.62zm-17 11.67a4.36 4.36 0 1 1 4.36-4.35 4.36 4.36 0 0 1 -4.4 4.35zm29.58 0a4.36 4.36 0 1 1 4.35-4.35 4.36 4.36 0 0 1 -4.37 4.35z" fill="#fff"/><path d="m252 352.91c2 0 2.17.09 2.19 1.24v.6 2.64 5.28c0 1 .33 6.22 6.85 6.22a6.87 6.87 0 0 0 4.56-1.55c1.57-1.42 2.34-3.67 2.34-6.86v-5.19c0-1.29.09-1.84.35-2.1s.86-.28 1.81-.28h.25c.25 0 .44-.26.44-.61s-.17-.63-.56-.63h-1c-.62 0-1.56.06-2 .06-1 0-2 0-2.65-.07h-.08-.66c-.19 0-.42.11-.42.59 0 .19 0 .65.42.65h.16c1.08 0 1.73 0 2.09.34s.49 1 .49 2.55v4.57c0 4.54-1.54 6.74-4.72 6.74-4.29 0-4.93-3.47-4.93-5.55v-4.17c0-1.29 0-1.92 0-2.64v-.6c0-1.15.18-1.24 2.18-1.24.49 0 .49-.51.49-.7 0-.37-.22-.54-.44-.54h-.49c-.73 0-2.09.08-3.18.08s-2.41 0-3.15-.08h-.49c-.22 0-.44.17-.44.54.08.2.08.71.59.71z" fill="#004f9d"/><path d="m269.28 359.1a.45.45 0 0 0 .41.51c1 .1 1.15.42 1.15 1.15v3.15a24.13 24.13 0 0 1 -.12 3.23c-.1.23-.12.41-.93.41s-.91 0-.91.58c0 .4.23.49.42.49h.41 2.7 1.91.12c.31 0 .47-.18.47-.54 0-.53-.25-.53-.81-.53-.76 0-.92 0-.92-1.35v-5.72a.33.33 0 0 1 .1-.23 3.6 3.6 0 0 1 1.88-.78c2.18 0 2.34 1.26 2.34 3.34v4.12c0 .55-.12.62-1.2.62-.38 0-.43.28-.43.56 0 .48.32.51.39.51h.2 2.22c.69 0 2 .05 2.33.05a.48.48 0 0 0 .55-.54c0-.14 0-.53-.46-.53-1.26 0-1.26-.32-1.26-.59v-5.53c0-2.38-1.17-3.7-3.28-3.7a5.64 5.64 0 0 0 -2.9 1.08.47.47 0 0 1 -.38.06c-.1-.06-.09-.22-.08-.33s0-.31 0-.43v-.21c0-.12 0-.49-.3-.49a.81.81 0 0 0 -.42.17 8.42 8.42 0 0 1 -2.85 1c-.21-.04-.35 0-.35.47z" fill="#004f9d"/><path d="m282.7 368.62h.41 2.69 1.78.13c.31 0 .46-.18.46-.54 0-.53-.34-.53-.78-.53-.76 0-.83 0-.83-1.35v-5a28.41 28.41 0 0 1 .11-3.22c0-.05.11-.59-.37-.59a.81.81 0 0 0 -.42.17 8.22 8.22 0 0 1 -2.85 1 .5.5 0 0 0 -.37.55.45.45 0 0 0 .42.51c1 .1 1.15.25 1.15 1v3.32a26.34 26.34 0 0 1 -.12 3.23c-.1.23-.25.41-.76.41-.74 0-1.07 0-1.07.58 0 .37.23.46.42.46z" fill="#004f9d"/><path d="m285.38 354.68a1.46 1.46 0 1 0 -1.43-1.46 1.46 1.46 0 0 0 1.43 1.46z" fill="#004f9d"/><path d="m288.67 359.28s.52 0 .64.21.71 1.84 1.24 3.27c.63 1.7 1.91 4.87 2 5 .35.77.5 1.11.86 1.11s.6-.3 1.31-2c.14-.32 2-4.52 2.55-5.82.83-2 .62-1.76 1.88-1.82a.48.48 0 0 0 .47-.55c0-.28-.1-.58-.39-.58h-1.05-1-1-.05-1.08c-.35 0-.41.33-.41.58s.17.51.39.51c1.18 0 1.37.08 1.37.36 0 .52-.31 1.33-2 5.16-.05.11-.15.29-.27.3s-.24-.19-.29-.31a34 34 0 0 1 -1.84-5.25c0-.05-.05-.23.19-.24s.55 0 .86 0h.12c.28 0 .38-.28.38-.52s-.15-.58-.4-.58h-2.74-2.2c-.46 0-.46.45-.46.65-.01.48.36.52.92.52z" fill="#004f9d"/><path d="m304.42 368.89a4.39 4.39 0 0 0 4.2-3.16.68.68 0 0 0 -.6-.51c-.21 0-.34.19-.45.37l-.09.13a2.81 2.81 0 0 1 -2.48 1.28 3.61 3.61 0 0 1 -3.54-3.57c0-.29 0-.56 0-.8s.07-.28.23-.28h6.17a.44.44 0 0 0 .51-.49 4.08 4.08 0 0 0 -4.36-4.22c-2.38 0-4.85 2.16-4.85 5.77s1.92 5.48 5.26 5.48zm-2.64-8.07c.36-1.4 1.1-2.11 2.23-2.11a1.7 1.7 0 0 1 1.79 2c0 .45-.17.53-.55.53h-3.17a.34.34 0 0 1 -.28-.09.34.34 0 0 1 -.02-.33z" fill="#004f9d"/><path d="m309.45 368.62h.55 2.18 1.47 1.25c.28 0 .49 0 .49-.56s-.25-.51-1.18-.51-.92-.26-.92-1.12v-5.24a1.28 1.28 0 0 1 .1-.58 2.06 2.06 0 0 1 1.42-.84c.23 0 .37.14.58.32a1.61 1.61 0 0 0 1.19.56 1.37 1.37 0 0 0 1.37-1.39 1.54 1.54 0 0 0 -1.71-1.53 3.94 3.94 0 0 0 -2.44 1.14c-.1.08-.3.18-.41.12s-.1-.25-.09-.37 0-.23 0-.32a3.79 3.79 0 0 0 0-.39c0-.18-.09-.47-.33-.47a.85.85 0 0 0 -.42.17 8.46 8.46 0 0 1 -2.85 1c-.34.07-.37.25-.37.55a.45.45 0 0 0 .42.51c1 .1 1.15.42 1.15 1.15v5.85c0 .86-.08.94-.94.94-.58 0-.95 0-.95.53s.23.48.44.48z" fill="#004f9d"/><path d="m319 368.25c0 .18.08.42.31.49a5.05 5.05 0 0 0 .9 0c.44 0 1.58.15 2 .15 3.47 0 3.8-2.57 3.8-3.36 0-2.2-1.16-2.66-2.76-3.29-.44-.17-.93-.36-1.44-.61a1.55 1.55 0 0 1 -1-1.33 1.43 1.43 0 0 1 1.61-1.5 2.37 2.37 0 0 1 2.17 1.78v.1c.17.44.41.4.65.4.41 0 .49-.17.49-.42a3.91 3.91 0 0 0 -.08-.54 9.23 9.23 0 0 1 -.18-1.3c0-.5-.06-.78-.52-.87a20.07 20.07 0 0 0 -2.55-.22 3.45 3.45 0 0 0 -3.73 3.37c0 1.92 1.67 2.58 3 3.11 1.15.45 2.14.84 2.14 1.8a1.73 1.73 0 0 1 -1.86 1.82 2.47 2.47 0 0 1 -2.25-1.59c-.21-.41-.33-.74-.65-.74s-.67.06-.67.31a15.63 15.63 0 0 0 .33 1.59c.16.42.22.68.29.85z" fill="#004f9d"/><path d="m327.29 368.62h.41 2.7 1.79.13c.3 0 .46-.18.46-.54 0-.53-.35-.53-.79-.53-.76 0-.82 0-.82-1.35v-5a29.4 29.4 0 0 1 .1-3.22.46.46 0 0 0 0-.1c0-.34-.18-.49-.37-.49a.81.81 0 0 0 -.42.17 8.32 8.32 0 0 1 -2.85 1 .5.5 0 0 0 -.37.55.45.45 0 0 0 .41.51c1 .1 1.15.25 1.15 1v3.32a24.13 24.13 0 0 1 -.12 3.23c-.1.23-.21.41-.72.41-.74 0-1.12 0-1.12.58.01.37.24.46.43.46z" fill="#004f9d"/><path d="m330 354.68a1.46 1.46 0 1 0 -1.43-1.46 1.46 1.46 0 0 0 1.43 1.46z" fill="#004f9d"/><path d="m332.92 359.54a.4.4 0 0 0 .23 0h1.14a.15.15 0 0 1 0 .07v6.14c0 2 1 3.09 2.88 3.09 2.13 0 3.3-1.09 3.3-1.45s-.23-.6-.49-.6a.62.62 0 0 0 -.29.11 2.67 2.67 0 0 1 -1.27.42c-1.51 0-1.79-.49-1.79-3.09v-4.46c0-.08 0-.18.05-.24a.41.41 0 0 1 .25-.06c1.11 0 1.39 0 1.61.05h.19c.5 0 .85 0 .85-.65s-.26-.79-.44-.79c-.46 0-.86 0-1.13 0-.29 0-.39 0-1 0a.39.39 0 0 1 -.26-.06c-.06-.06-.05-.17 0-.26 0-.82 0-1.31 0-1.51a.5.5 0 0 0 -.51-.53c-.31 0-.52.25-.91.7a12.79 12.79 0 0 1 -2.28 2.18.55.55 0 0 0 -.22.51.34.34 0 0 0 .09.43z" fill="#004f9d"/><path d="m340.85 359.29c.71 0 1.2 0 1.33.37s.33 1 .53 1.63c.37 1.21.87 2.88 1.82 5.31l.07.18a10.11 10.11 0 0 1 .72 2.32 6.05 6.05 0 0 1 -1.28 3.06 1.31 1.31 0 0 1 -.24-.12 1.84 1.84 0 0 0 -.9-.27 1.54 1.54 0 1 0 0 3.07c.91 0 1.7-.35 3.51-4.9.28-.69 1.35-3 2.39-5.21v-.09c.79-1.69 1.72-3.66 2.11-4.55.28-.68.45-.76 1.25-.76.4 0 .59-.19.59-.57a.66.66 0 0 0 -.14-.5.48.48 0 0 0 -.35-.13h-1c-.66 0-1.42 0-2.13 0h-1.17c-.25 0-.4.23-.4.53 0 .66.36.66.48.66h.2c.43 0 1 0 1.24.18a.33.33 0 0 1 .09.25c0 .29-.44 1.59-2.41 5.73a.3.3 0 0 1 -.29.17.28.28 0 0 1 -.27-.19c-1.08-2.81-1.79-4.89-1.79-5.91 0-.15.05-.27.89-.27.3 0 .44-.32.44-.62a.48.48 0 0 0 -.51-.53h-1.08-1.2-1.72-.73c-.24 0-.39.17-.39.51s.03.65.34.65z" fill="#004f9d"/><path d="m368.56 359.61h1.11c.2 0 .36.05.36.35v7c0 .29-.14.55-.61.55-.75 0-.82 0-.93.13a.61.61 0 0 0 -.11.42c0 .4.14.54.44.54h.18 2.22 1.47 1.22c.28 0 .52-.05.52-.56s-.26-.51-1-.51c-1.19 0-1.1-.26-1.1-1.12v-6.5a.28.28 0 0 1 .09-.22.31.31 0 0 1 .22-.09l1.23.07.84.06c.53 0 .68-.26.68-.77s-.2-.72-.49-.72h-2.3a.29.29 0 0 1 -.3-.3v-2.43c0-1.42.23-3.11 1.31-3.11.35 0 .47.15.86.48a2.29 2.29 0 0 0 1.42.58 1.27 1.27 0 0 0 1.32-1.36c0-.85-.85-1.23-1.69-1.23a7.57 7.57 0 0 0 -1.46.19c-2.71.72-3.91 2.56-4.16 6.37-.06.85-.14.78-1 1-.6.16-.9.19-.9.62s.25.54.56.56z" fill="#004f9d"/><path d="m272.68 377.23c-1.81-2.23-4.8-3.36-8.87-3.36-1.46 0-3.53.08-4.65.12h-.92c-1.83 0-3.82-.09-4.89-.13h-.67c-.36 0-.59.29-.59.74s0 .9.67.9c2.68 0 3.26.21 3.3 2.4v.93c0 1.3.06 2.33.06 4.6v9.61c0 1.63 0 4.07-.12 6.07 0 .84-.06 1.62-3.14 1.62-1.15 0-1.33.27-1.33.9 0 .35.08.74.54.74.87 0 1.46-.08 6.2-.08 3.52 0 6.15.08 7.1.08.55 0 .62-.47.62-.81 0-.72-.33-.83-1.58-.83-3.82 0-3.8-.76-3.87-2.14v-.23c0-1.1-.08-2.24-.08-7.78a.28.28 0 0 1 .11-.23.3.3 0 0 1 .24-.07 26.64 26.64 0 0 0 4.17.28 10.11 10.11 0 0 0 6.76-2.19 8.28 8.28 0 0 0 2.69-6.51 7.7 7.7 0 0 0 -1.75-4.63zm-3 4.95c0 4.1-2.85 6.75-7.26 6.75-2 0-2-.58-2-1.26v-9.14c0-1.43 0-2.27.4-2.64s1.19-.38 2.67-.38c3.66 0 6.21 2.74 6.21 6.67z" fill="#004f9d"/><path d="m283.05 400.9c-1.46 0-1.57-.19-1.57-2.48v-8.42a49.67 49.67 0 0 1 .18-5.51.88.88 0 0 0 0-.14c0-.46-.23-.66-.46-.66a1.31 1.31 0 0 0 -.63.25 14 14 0 0 1 -4.91 1.67.72.72 0 0 0 -.5.78.6.6 0 0 0 .56.7c1.8.18 2.11.8 2.11 2.13v5.37a41.2 41.2 0 0 1 -.22 5.56c-.22.52-.51.8-1.4.8-1.41 0-1.72.07-1.72.82 0 .18 0 .66.55.66h.67c.74 0 2-.07 4.62-.07 2 0 2.74.05 3.05.07h.21c.62 0 .62-.54.62-.74.01-.76-.33-.79-1.16-.79z" fill="#004f9d"/><path d="m279.64 374a2.31 2.31 0 1 0 2.27 2.31 2.31 2.31 0 0 0 -2.27-2.31z" fill="#004f9d"/><path d="m296.36 399.68a.91.91 0 0 0 -.42.18 4.88 4.88 0 0 1 -2.25.73c-3 0-3.22-1.41-3.22-5.42v-7.71a.31.31 0 0 1 .3-.3c2.19 0 3.38.13 3.9.17h.36c1 0 1.3-.44 1.3-1.22 0-.26 0-1.05-.63-1.05h-4.93a.27.27 0 0 1 -.21-.09.31.31 0 0 1 -.09-.22c0-1.08 0-1.74.08-2.24 0-.32 0-.57 0-.83a.69.69 0 0 0 -.71-.74c-.45 0-.81.43-1.42 1.15a22.25 22.25 0 0 1 -3.9 3.73.75.75 0 0 0 -.32.73c0 .38.23.58.47.58h1.86c.2 0 .26 0 .26.23v10.37c0 4.21 2.58 5.09 4.74 5.09 3.63 0 5.45-1.87 5.45-2.31s-.29-.83-.62-.83z" fill="#004f9d"/><path d="m309.6 399.68c-.1 0-.19.05-.42.18a4.84 4.84 0 0 1 -2.25.73c-3 0-3.22-1.41-3.22-5.42v-7.71a.29.29 0 0 1 .09-.21.3.3 0 0 1 .21-.09c2.19 0 3.39.13 3.9.17h.37c1 0 1.29-.44 1.29-1.22 0-.26 0-1.05-.62-1.05h-4.95a.29.29 0 0 1 -.21-.09.31.31 0 0 1 -.09-.22c0-1.08.05-1.74.08-2.24 0-.32 0-.57 0-.83a.69.69 0 0 0 -.7-.74c-.45 0-.82.43-1.43 1.15a21.88 21.88 0 0 1 -3.9 3.73.77.77 0 0 0 -.32.73.52.52 0 0 0 .47.58h1.87c.19 0 .25 0 .25.23v10.37c0 4.21 2.58 5.09 4.74 5.09 3.64 0 5.45-1.87 5.45-2.31s-.28-.83-.61-.83z" fill="#004f9d"/><path d="m319.14 391.85s-1.58-.63-2.47-1.05a2.78 2.78 0 0 1 -1.71-2.42 2.61 2.61 0 0 1 2.91-2.71c1.69 0 3 1.06 3.84 3.14v.05a.91.91 0 0 0 1 .69c.4 0 .66-.21.66-.54a4.52 4.52 0 0 0 -.13-.89 16.51 16.51 0 0 1 -.3-2.25c0-.43-.16-1.18-.76-1.32a31 31 0 0 0 -4.3-.36c-3.58 0-6.19 2.34-6.19 5.56s2.68 4.21 5 5.14c1.93.76 3.75 1.47 3.75 3.22a3.15 3.15 0 0 1 -3.34 3.26c-2.37 0-3.28-1.69-3.88-2.81-.35-.67-.61-1.15-1.06-1.15-.24 0-.94 0-.94.46 0 .24.86 4 .9 4.24a.49.49 0 0 0 .43.43c1.61 0 3.19.31 4.51.31 6.15 0 6.63-4.26 6.63-5.56.06-3.63-1.87-4.39-4.55-5.44z" fill="#004f9d"/><path d="m340.79 386.08a8.48 8.48 0 0 0 -5.74-2.13 6.42 6.42 0 0 0 -4 1.2.31.31 0 0 1 -.32 0 .32.32 0 0 1 -.16-.27v-6.38a37 37 0 0 1 .17-5 1.52 1.52 0 0 0 0-.23c0-.49-.25-.56-.47-.56a2.92 2.92 0 0 0 -.89.3 19.76 19.76 0 0 1 -4.6 1.39c-.44.07-.5.35-.5.77a.65.65 0 0 0 .56.71h.08c2 .18 2 .18 2 3.34v20.48c0 .52-.08 1.74-.08 2s0 .74.54.74.62-.3.78-.56.37-.59.83-.59a5 5 0 0 1 1.54.5 11 11 0 0 0 4.43 1 8.63 8.63 0 0 0 5.7-2.19 10.76 10.76 0 0 0 .15-14.58zm-1.42 7.79c0 5.05-1.55 7.5-4.75 7.5-2.75 0-4.08-1.63-4.08-5v-7.14c0-2.28 1.43-3.65 3.84-3.65 4.13.01 4.99 4.51 4.99 8.29z" fill="#004f9d"/><path d="m363.75 400c-.12 0-1.26.15-1.56.15-.7 0-.75-.48-.75-1.22v-7.37c0-2.25.23-4.65.32-5.56 0-.28 0-.37 0-.4a.71.71 0 0 0 -.78-.79c-.5 0-1 0-1.5.06s-1 .06-1.48.06c-1.6 0-2.71-.12-3.33-.12s-.59.35-.59 1 .72.63 1.48.63c1.93 0 2.21.13 2.21 2.12v10.16c0 1-2.25 1.84-3.66 1.84-2.56 0-3.61-1.27-3.61-4.39v-10.57c0-.54-.08-.79-.54-.79h-1c-.65 0-1.54.08-2.4.08s-1.37-.05-1.79-.08c-.21 0-.38 0-.52 0-.76 0-.67.72-.67 1 0 .56.77.63 1.1.63 1.82 0 2.2 0 2.2 3.45v6.11c0 4.78 1.56 6.82 5.21 6.82a11 11 0 0 0 5.57-1.9 8.55 8.55 0 0 0 -.07 1 .76.76 0 0 0 .7.79c.57 0 2.18-.64 4.55-1 1.13-.17 1.49-.25 1.49-.74s-.08-.97-.58-.97z" fill="#004f9d"/><path d="m377.56 384.19c-1.41 0-3 .84-4.72 2.5a.34.34 0 0 1 -.37.09.33.33 0 0 1 -.14-.32c0-.67.08-1.17.12-1.55a6.09 6.09 0 0 0 .05-.65c0-.2.07-.62-.39-.62a1.31 1.31 0 0 0 -.63.25 14 14 0 0 1 -4.91 1.67.72.72 0 0 0 -.5.78.6.6 0 0 0 .56.7c1.81.18 2.11.8 2.11 2.13v10c0 1.55-.22 1.77-1.77 1.77-1 0-1.45 0-1.45.74s.41.74.59.74.46 0 .8 0c.65 0 1.63-.06 3.75-.06.94 0 1.72 0 2.47.05h2s.82-.06.82-.78-.33-.7-1.84-.7c-1.73 0-1.73-.61-1.73-2.08v-8.91a2.15 2.15 0 0 1 .22-1.1 3.52 3.52 0 0 1 2.53-1.49 1.59 1.59 0 0 1 1.1.6 2.67 2.67 0 0 0 1.92.89 2.16 2.16 0 0 0 2.16-2.2c0-1.5-1.08-2.45-2.75-2.45z" fill="#004f9d"/><path d="m396 387.17c.37.57.85 1.29 1.7 1.29a1.7 1.7 0 0 0 1.73-1.61c0-.73-.31-2.43-3.18-2.43a4.77 4.77 0 0 0 -2.93 1 .3.3 0 0 1 -.34 0 8.61 8.61 0 0 0 -4.57-1.35 7.56 7.56 0 0 0 -4.95 1.89 6.33 6.33 0 0 0 -2.23 4.77c0 2.48.81 4.23 2.48 5.36a.36.36 0 0 1 .18.24.37.37 0 0 1 -.16.26c-1.52 1.12-2.46 2.23-2.46 4.31a2.62 2.62 0 0 0 1.67 2.31c.09 0 .21.11.22.21a.41.41 0 0 1 -.13.28c-1.46 1.47-2.82 2.91-2.82 5.06 0 2.64 1.73 3.92 5.29 3.92a17 17 0 0 0 7.57-1.63 6.7 6.7 0 0 0 4-6.25 4.94 4.94 0 0 0 -.7-2.63c-.92-1.28-2.5-2-4.86-2h-5.81c-1.16 0-1.61-.3-1.61-1.06a2.56 2.56 0 0 1 1.2-2.13.54.54 0 0 1 .43-.06 9.52 9.52 0 0 0 2.57.34c4.52 0 7.21-2.61 7.21-7a7.83 7.83 0 0 0 -1.37-3.75.92.92 0 0 1 .85-.4c.53.04.71.62 1.02 1.06zm-13.1 19.83c0-1.94 2-3.47 2-3.47h5.79c2.78 0 3.92.59 3.92 2.65 0 2.52-1.95 4.2-6.32 4.2-5 .03-5.39-2.55-5.39-3.38zm5.5-11.23c-2.87 0-3.3-2.78-3.3-4.44 0-3.85 1.16-5.81 3.45-5.81 2.77 0 3.07 3.16 3.07 4.52 0 2.17-.42 5.76-3.22 5.76z" fill="#004f9d"/><path d="m419.07 400.9c-2.32 0-2.32-.66-2.32-1.18v-9.42c0-3.94-1.92-6.11-5.41-6.11a9.85 9.85 0 0 0 -5.46 1.85.31.31 0 0 1 -.31 0 .3.3 0 0 1 -.16-.27v-7.25c0-2.86.16-4.68.2-5.23s-.13-.7-.47-.7a3.27 3.27 0 0 0 -.9.3 18.11 18.11 0 0 1 -4.6 1.39c-.49.08-.5.36-.5.78a.64.64 0 0 0 .57.7c2 .19 2.06.19 2.06 3.47v13.77c0 2.46-.1 6.81-.21 7.13a1.14 1.14 0 0 1 -1.2.8c-1.42 0-1.72.07-1.72.82 0 .18 0 .66.54.66h.45c.61 0 1.89-.07 4.65-.07 2.15 0 2.92.05 3.25.07h.2c.63 0 .63-.54.63-.74 0-.74-.28-.74-1.37-.74-1.46 0-1.58-.19-1.58-2.48v-10.45a5.19 5.19 0 0 1 3.54-1.19c3.88 0 4.16 2.21 4.16 5.85v7c0 1.07-.13 1.22-2.13 1.22-.58 0-.66.42-.66.78 0 .65.39.7.51.7h.34c.45 0 1.4-.07 3.78-.07 1.19 0 1.91 0 2.55.05h.06 1.43c.7 0 .7-.46.7-.7s-.05-.74-.62-.74z" fill="#004f9d"/><path d="m362.44 357.73a5.47 5.47 0 0 0 -5.59 5.59 5.4 5.4 0 0 0 5.59 5.58 5.29 5.29 0 0 0 5.61-5.58 5.42 5.42 0 0 0 -5.61-5.59zm2.94 5.59c0 3.72-1.6 4.5-2.94 4.5-2.41 0-2.91-2.45-2.91-4.5 0-4.18 2.23-4.51 2.91-4.51 2.73 0 2.94 3.45 2.94 4.51z" fill="#004f9d"/><path d="m234.87 354.38h-24.42v-3.38a2.29 2.29 0 1 0 -4.57 0v3.38h-24.4v14.62h53.39z" fill="none"/><path d="m186.2 391.1a37.75 37.75 0 0 0 8.8 10.9 41 41 0 0 0 13.22 7.66 40.89 40.89 0 0 0 13.17-7.66 37.69 37.69 0 0 0 8.76-10.89z" fill="none"/><path d="m230.66 390.12a43.1 43.1 0 0 0 4.21-19.27v-1.85h-53.39v1.88a42.93 42.93 0 0 0 4.21 19.26q.24.5.51 1h44z" fill="#fdb71a"/><g fill="#004f9d"><path d="m204.89 343.1h6.7v1.61h-6.7zm6.69-1c0-.85 1.26-1.21 1.26-2.71v-1.11h-2v1.11h-1.68v-1.11h-2v1.11h-1.68v-1.11h-2v1.11c0 1.45 1.26 1.86 1.26 2.71zm-18.72 5.28h6.69v-1.61h-6.69zm6.69-2.63c0-.85 1.27-1.21 1.27-2.72v-1.1h-1.95v1.07h-1.68v-1.1h-1.95v1.1h-1.68v-1.1h-1.95v1.1c0 1.45 1.25 1.87 1.25 2.72zm17.23 2.63h6.69v-1.61h-6.69zm6.69-2.63c0-.85 1.26-1.21 1.26-2.72v-1.1h-1.94v1.07h-1.69v-1.1h-1.94v1.1h-1.69v-1.1h-1.95v1.1c0 1.45 1.26 1.87 1.26 2.72zm14.23 6.89v19.25a45.7 45.7 0 0 1 -4.54 20.6 40.39 40.39 0 0 1 -10 12.78 42.46 42.46 0 0 1 -14.6 8.28l-.38.1-.38-.1a42.49 42.49 0 0 1 -14.6-8.29 40.67 40.67 0 0 1 -10-12.78 45.82 45.82 0 0 1 -4.54-20.59v-19.29h13v-.36c0-1.45 1.14-2.12 1.25-2.83h6.69c.13.69 1.27 1.32 1.27 2.83v.36h1.39v-.37c0-2.29-1.39-2.61-1.39-4.06v-1.44h2v1.13h1.13v-1.13h2v1.13h1.21v-1.13h1.95v1.13h1.21v-1.13h2v1.13h1.25v-1.13h1.95v1.44c0 1.45-1.39 1.77-1.39 4.06v.37h1.4v-.36c0-1.45 1.15-2.12 1.26-2.83h6.69c.12.69 1.26 1.32 1.26 2.83v.36zm-7.55 39.5.51-1a43.1 43.1 0 0 0 4.21-19.27v-16.49h-24.42v-3.38a2.29 2.29 0 1 0 -4.57 0v3.38h-24.4v16.47a42.93 42.93 0 0 0 4.21 19.26q.24.5.51 1a37.75 37.75 0 0 0 8.8 10.89 41 41 0 0 0 13.22 7.66 40.89 40.89 0 0 0 13.17-7.66 37.69 37.69 0 0 0 8.76-10.9zm-36.5-8.16h-5.81v5.81h5.81zm5.81-5.81h-5.81v5.81h5.81zm-5.81-5.81h-5.81v5.81h5.81zm34.88 11.62h-5.81v5.81h5.81zm0-11.62h-5.81v5.81h5.81zm-11.62 0h-5.81v5.81h5.81zm-5.81 5.81h-5.81v5.81h5.81zm11.62 0h-5.81v5.81h5.81zm-5.81 5.81h-5.81v5.81h5.81zm-11.64 0h-5.81v5.81h5.81zm0-11.62h-5.81v5.81h5.81zm2.94 22.64a4.36 4.36 0 1 0 4.36 4.36 4.37 4.37 0 0 0 -4.36-4.36zm-14.81-36.66a4.36 4.36 0 1 0 4.36 4.36 4.37 4.37 0 0 0 -4.36-4.36zm29.58 0a4.36 4.36 0 1 0 4.35 4.36 4.37 4.37 0 0 0 -4.33-4.36z"/><path d="m251.75 422.83v-.13c0-1.87 1.33-3.06 3.61-3.06 2.5 0 3.59 1.18 3.59 3.56v.31h-1.81c0-1.58-.51-2.29-1.77-2.29h-.12c-1 0-1.65.56-1.65 1.38v.08c0 .87.39 1.35 2.05 1.58 2.3.31 3.39 1.14 3.39 3v.14c0 2-1.33 3.14-3.68 3.14s-3.7-1.18-3.7-3.59v-.14h1.81c0 1.5.69 2.15 1.82 2.15h.12c1.14 0 1.78-.61 1.78-1.49v-.08c0-.92-.51-1.4-2.12-1.62-2.29-.32-3.32-1.2-3.32-2.94z"/><path d="m263.67 430.35h-2.23l-1.32-7.15h1.72l.77 5.26 1.21-5.26h2.11l1.21 5.26.77-5.26h1.73l-1.33 7.15h-2.23l-1.2-5.31z"/><path d="m275 429.53a3 3 0 0 1 -2.34 1 2 2 0 0 1 -2.16-2.11v-.13c0-1.56 1.11-2 2.5-2.25l1.82-.28c0-.9-.28-1.35-1.19-1.35s-1.19.56-1.19 1.18h-1.67v-.12c0-1.2.62-2.42 2.9-2.42s2.91 1 2.91 2.71v2.6l.1 2h-1.55zm-.18-1.19v-1.51l-1.5.24c-.74.12-1.06.47-1.06 1v.11c0 .44.29.87 1 .87a1.89 1.89 0 0 0 1.51-.71z"/><path d="m282.68 430.35v-4.62a1 1 0 0 0 -1.13-1.18 1.67 1.67 0 0 0 -1.49.82v5h-1.75v-5.13l-.13-2h1.56l.16.94a2.66 2.66 0 0 1 2.32-1.12 2.14 2.14 0 0 1 2.2 2.43v4.9z"/><path d="m290.17 428.27c0-.62-.35-.83-1.36-.92-2-.16-2.75-.71-2.75-2v-.11c0-1.52 1.2-2.25 2.89-2.25 2.05 0 2.9 1 2.9 2.44v.07h-1.72c0-.71-.32-1.15-1.18-1.15s-1.17.33-1.17.85.26.79 1.31.87c1.8.15 2.84.57 2.84 2v.1c0 1.41-1 2.32-3 2.32s-3-1.07-3-2.36v-.06h1.74c0 .58.3 1.05 1.25 1.05s1.25-.32 1.25-.85z"/><path d="m293.25 427v-.43c0-2.06 1-3.54 3.24-3.54s3.24 1.48 3.24 3.54v.43c0 2-1 3.54-3.24 3.54s-3.24-1.54-3.24-3.54zm4.73 0v-.43c0-1.24-.46-2-1.49-2s-1.49.77-1.49 2v.43c0 1.23.46 2 1.49 2s1.51-.78 1.51-2z"/><path d="m305.66 430.35v-4.62a1 1 0 0 0 -1.14-1.18 1.67 1.67 0 0 0 -1.48.82v5h-1.76v-5.13l-.12-2h1.55l.17.94a2.64 2.64 0 0 1 2.32-1.18 2.14 2.14 0 0 1 2.2 2.43v4.9z"/><path d="m311.93 422.83v-.13c0-1.87 1.33-3.06 3.61-3.06 2.5 0 3.59 1.18 3.59 3.56v.31h-1.81c0-1.58-.51-2.29-1.77-2.29h-.12c-1 0-1.64.56-1.64 1.38v.08c0 .87.39 1.35 2 1.58 2.29.31 3.39 1.14 3.39 3v.14c0 2-1.34 3.14-3.69 3.14s-3.7-1.18-3.7-3.59v-.14h1.81c0 1.5.69 2.15 1.82 2.15h.12c1.14 0 1.79-.61 1.79-1.49v-.08c0-.92-.52-1.4-2.12-1.62-2.21-.32-3.28-1.2-3.28-2.94z"/><path d="m323.68 429a1.14 1.14 0 0 0 1.27-1.24h1.66v.24c0 1.36-.94 2.5-3 2.5-2.2 0-3.16-1.5-3.16-3.54v-.43c0-2.06 1-3.54 3.16-3.54 2 0 3 1.16 3 2.61v.29h-1.61a1.2 1.2 0 0 0 -1.27-1.37c-1 0-1.44.77-1.44 2v.48c-.05 1.22.36 2 1.39 2z"/><path d="m329.89 423.92a2.73 2.73 0 0 1 2.16-.9 2.14 2.14 0 0 1 2.2 2.43v4.9h-1.74v-4.62a1 1 0 0 0 -1.13-1.18 1.67 1.67 0 0 0 -1.49.82v5h-1.75v-10.8h1.75z"/><path d="m335.71 427v-.43c0-2.06 1-3.54 3.24-3.54s3.24 1.48 3.24 3.54v.43c0 2-1 3.54-3.24 3.54s-3.24-1.54-3.24-3.54zm4.73 0v-.43c0-1.24-.46-2-1.49-2s-1.49.77-1.49 2v.43c0 1.23.46 2 1.49 2s1.49-.78 1.49-2z"/><path d="m343.45 427v-.43c0-2.06 1-3.54 3.24-3.54s3.24 1.48 3.24 3.54v.43c0 2-1 3.54-3.24 3.54s-3.24-1.54-3.24-3.54zm4.72 0v-.43c0-1.24-.46-2-1.48-2s-1.49.77-1.49 2v.43c0 1.23.46 2 1.49 2s1.48-.78 1.48-2z"/><path d="m351.5 419.55h1.76v10.8h-1.76z"/><path d="m251.64 443.19v-.43c0-2.05 1-3.54 3.24-3.54s3.25 1.49 3.25 3.54v.43c0 2-1 3.54-3.25 3.54s-3.24-1.5-3.24-3.54zm4.73 0v-.43c0-1.24-.46-2-1.49-2s-1.48.77-1.48 2v.43c0 1.23.46 2 1.48 2s1.49-.77 1.49-2z"/><path d="m261.89 439.4h1.72v1.53h-1.72v5.62h-1.75v-5.62h-1.14v-1.53h1.1v-1.33a2.21 2.21 0 0 1 2.49-2.5 2.8 2.8 0 0 1 1.11.18v1.46a2.33 2.33 0 0 0 -.69-.11c-.73 0-1.16.22-1.16 1.17z"/><path d="m274.47 436v1.58h-4.47v2.79h3.78v1.63h-3.78v3h4.45v1.58h-6.26v-10.58z"/><path d="m280.44 446.55v-4.62a1 1 0 0 0 -1.13-1.18 1.67 1.67 0 0 0 -1.49.82v5h-1.76v-5.13l-.12-2h1.56l.16.94a2.64 2.64 0 0 1 2.32-1.12 2.14 2.14 0 0 1 2.2 2.43v4.9z"/><path d="m288.23 445.45a2.36 2.36 0 0 1 -1.9.82c-1.92 0-2.69-1.38-2.69-3.35v-.35c0-1.88.77-3.35 2.69-3.35a2.31 2.31 0 0 1 2.06 1l.15-.87h1.55l-.1 2v5.05c0 1.88-1 3-3.15 3s-3.07-1.18-3.07-2.62v-.26h1.66c0 .89.33 1.43 1.37 1.43s1.43-.44 1.43-1.54zm0-3.88a1.67 1.67 0 0 0 -1.42-.82c-.94 0-1.42.72-1.42 1.82v.35c0 1.17.48 1.82 1.42 1.82a1.68 1.68 0 0 0 1.42-.81z"/><path d="m293.67 438.15h-1.92v-1.9h1.92zm-1.84 1.25h1.76v7.15h-1.76z"/><path d="m299.83 446.55v-4.62a1.05 1.05 0 0 0 -1.14-1.18 1.67 1.67 0 0 0 -1.48.82v5h-1.76v-5.13l-.12-2h1.55l.16.94a2.66 2.66 0 0 1 2.33-1.12 2.15 2.15 0 0 1 2.2 2.43v4.9z"/><path d="m304.78 443.62c.07 1.18.61 1.74 1.61 1.74s1.45-.56 1.45-1.1h1.67v.05c0 1.28-1.08 2.42-3.14 2.42-2.31 0-3.35-1.54-3.35-3.58v-.35c0-2 1.07-3.58 3.29-3.58s3.2 1.54 3.2 3.58v.82zm0-1.29h3c-.06-1.14-.52-1.75-1.47-1.75s-1.46.61-1.53 1.75z"/><path d="m312.51 443.62c.07 1.18.61 1.74 1.61 1.74s1.46-.56 1.46-1.1h1.66v.05c0 1.28-1.08 2.42-3.13 2.42-2.31 0-3.35-1.54-3.35-3.58v-.35c0-2 1.07-3.58 3.28-3.58s3.2 1.54 3.2 3.58v.82zm0-1.29h3c-.05-1.14-.51-1.75-1.47-1.75s-1.46.61-1.53 1.75z"/><path d="m322.51 439.23v1.7h-.3a1.89 1.89 0 0 0 -1.66.76v4.86h-1.76v-5.13l-.12-2h1.55l.15.86a2.31 2.31 0 0 1 1.93-1z"/><path d="m325.89 438.15h-1.89v-1.9h1.91zm-1.83 1.25h1.75v7.15h-1.75z"/><path d="m332.05 446.55v-4.62a1 1 0 0 0 -1.13-1.18 1.67 1.67 0 0 0 -1.49.82v5h-1.75v-5.13l-.13-2h1.56l.16.94a2.64 2.64 0 0 1 2.32-1.12 2.14 2.14 0 0 1 2.2 2.43v4.9z"/><path d="m339.84 445.45a2.35 2.35 0 0 1 -1.9.82c-1.92 0-2.69-1.38-2.69-3.35v-.35c0-1.88.77-3.35 2.69-3.35a2.31 2.31 0 0 1 2.06 1l.15-.87h1.55l-.1 2v5.05c0 1.88-1 3-3.15 3s-3.07-1.18-3.07-2.62v-.26h1.62c0 .89.33 1.43 1.37 1.43s1.43-.44 1.43-1.54zm0-3.88a1.67 1.67 0 0 0 -1.42-.82c-.94 0-1.42.72-1.42 1.82v.35c0 1.17.48 1.82 1.42 1.82a1.68 1.68 0 0 0 1.42-.81z"/></g></g></svg>